<?xml version="1.0" encoding="utf-8"?>
<!-- Generator: Adobe Illustrator 16.0.0, SVG Export Plug-In . SVG Version: 6.00 Build 0)  -->
<!DOCTYPE svg PUBLIC "-//W3C//DTD SVG 1.1//EN" "http://www.w3.org/Graphics/SVG/1.1/DTD/svg11.dtd">
<svg version="1.1" id="Layer_1" xmlns="http://www.w3.org/2000/svg" xmlns:xlink="http://www.w3.org/1999/xlink" x="0px" y="0px"
	 width="100px" height="100px" viewBox="0 0 100 100" enable-background="new 0 0 100 100" xml:space="preserve">
<path fill="#989898" d="M100,0H0v100h100V0z"/>
<linearGradient id="SVGID_1_" gradientUnits="userSpaceOnUse" x1="-0.0019531" y1="50" x2="99.9980469" y2="50" gradientTransform="matrix(-1 0 0 -1 99.9980469 100.0019531)">
	<stop  offset="0" style="stop-color:#000000;stop-opacity:0.5"/>
	<stop  offset="0.2" style="stop-color:#000000;stop-opacity:0"/>
	<stop  offset="0.8" style="stop-color:#000000;stop-opacity:0"/>
	<stop  offset="1" style="stop-color:#000000;stop-opacity:0.5"/>
</linearGradient>
<polygon fill="url(#SVGID_1_)" points="100,100.0019531 0.0004883,0.0014648 0.0004883,100.0019531 100,0.0019531 "/>
<linearGradient id="SVGID_2_" gradientUnits="userSpaceOnUse" x1="0" y1="50" x2="100.0009766" y2="50" gradientTransform="matrix(8.526513e-014 1 -0.9999999 5.960464e-008 99.9990082 0.000473)">
	<stop  offset="0" style="stop-color:#000000;stop-opacity:0.5"/>
	<stop  offset="0.2" style="stop-color:#000000;stop-opacity:0"/>
	<stop  offset="0.8" style="stop-color:#000000;stop-opacity:0"/>
	<stop  offset="1" style="stop-color:#000000;stop-opacity:0.5"/>
</linearGradient>
<polygon fill="url(#SVGID_2_)" points="99.9990234,0 -0.0009766,100 99.9990234,100 -0.0009766,0 "/>
<g>
	<path id="EW" fill="#010101" d="M56.1699219,33.8999023v-4.0097656H20.3300781l-0.0102539,38.0297852h35.8500977V45.9902344
		H28.3300781v-4.0102539h27.8398438v-4.0097656H28.3300781v-4.0703125H56.1699219z M42.3198242,50h5.8203125v13.9199219h-5.8203125
		V50z M28.3500977,50h5.9399414v13.9199219h-5.9399414V50z"/>
	<polygon fill="#010101" points="60.125,72.109375 60.125,27.8891602 83.5625,50 	"/>
</g>
</svg>
